<svg width="18" height="20" viewBox="0 0 18 20" fill="none" xmlns="http://www.w3.org/2000/svg">
    <path d="M7 9.5C6.33696 9.5 5.70107 9.23661 5.23223 8.76777C4.76339 8.29893 4.5 7.66304 4.5 7C4.5 6.33696 4.76339 5.70107 5.23223 5.23223C5.70107 4.76339 6.33696 4.5 7 4.5C7.66304 4.5 8.29893 4.76339 8.76777 5.23223C9.23661 5.70107 9.5 6.33696 9.5 7C9.5 7.3283 9.43534 7.65339 9.3097 7.95671C9.18406 8.26002 8.99991 8.53562 8.76777 8.76777C8.53562 8.99991 8.26002 9.18406 7.95671 9.3097C7.65339 9.43534 7.3283 9.5 7 9.5ZM7 0C5.14348 0 3.36301 0.737498 2.05025 2.05025C0.737498 3.36301 0 5.14348 0 7C0 12.25 7 18 7 18C7.52302 18.9324 5.92447 6.23008 14 7C14 5.14348 13.2625 3.36301 11.9497 2.05025C10.637 0.737498 8.85652 0 7 0Z" fill="#0FA958"/>
    <path d="M11.1364 18H7.01136V6.36364H11.1705C12.3409 6.36364 13.3485 6.59659 14.1932 7.0625C15.0379 7.52462 15.6875 8.18939 16.142 9.05682C16.6004 9.92424 16.8295 10.9621 16.8295 12.1705C16.8295 13.3826 16.6004 14.4242 16.142 15.2955C15.6875 16.1667 15.0341 16.8352 14.1818 17.3011C13.3333 17.767 12.3182 18 11.1364 18ZM9.47159 15.892H11.0341C11.7614 15.892 12.3731 15.7633 12.8693 15.5057C13.3693 15.2443 13.7443 14.8409 13.9943 14.2955C14.2481 13.7462 14.375 13.0379 14.375 12.1705C14.375 11.3106 14.2481 10.608 13.9943 10.0625C13.7443 9.51705 13.3712 9.11553 12.875 8.85795C12.3788 8.60038 11.767 8.47159 11.0398 8.47159H9.47159V15.892Z" fill="#0FA958"/>
    </svg>
    