<svg width="108" height="29" viewBox="0 0 108 29" fill="none" xmlns="http://www.w3.org/2000/svg">
    <path d="M24 15.5C23.337 15.5 22.7011 15.2366 22.2322 14.7678C21.7634 14.2989 21.5 13.663 21.5 13C21.5 12.337 21.7634 11.7011 22.2322 11.2322C22.7011 10.7634 23.337 10.5 24 10.5C24.663 10.5 25.2989 10.7634 25.7678 11.2322C26.2366 11.7011 26.5 12.337 26.5 13C26.5 13.3283 26.4353 13.6534 26.3097 13.9567C26.1841 14.26 25.9999 14.5356 25.7678 14.7678C25.5356 14.9999 25.26 15.1841 24.9567 15.3097C24.6534 15.4353 24.3283 15.5 24 15.5ZM24 6C22.1435 6 20.363 6.7375 19.0503 8.05025C17.7375 9.36301 17 11.1435 17 13C17 18.25 24 26 24 26C24 26 31 18.25 31 13C31 11.1435 30.2625 9.36301 28.9497 8.05025C27.637 6.7375 25.8565 6 24 6Z" fill="#0FA958"/>
    <path d="M5.48864 15.5341V23H1.32102V5.54545H5.35227V12.3125H5.49716C5.79261 11.5057 6.27557 10.875 6.94602 10.4205C7.62216 9.96591 8.44886 9.73864 9.42614 9.73864C10.3466 9.73864 11.1477 9.94318 11.8295 10.3523C12.5114 10.7557 13.0398 11.3267 13.4148 12.0653C13.7955 12.804 13.983 13.6676 13.9773 14.6562V23H9.80966V15.4744C9.81534 14.7472 9.63352 14.179 9.2642 13.7699C8.89489 13.3608 8.375 13.1562 7.70455 13.1562C7.26705 13.1562 6.88068 13.2528 6.54545 13.446C6.21591 13.6335 5.95739 13.9034 5.76989 14.2557C5.58807 14.608 5.49432 15.0341 5.48864 15.5341Z" fill="#0FA958"/>
    <path d="M33.321 23V9.90909H37.2841V12.3125H37.429C37.7017 11.517 38.1619 10.8892 38.8097 10.429C39.4574 9.96875 40.2301 9.73864 41.1278 9.73864C42.0369 9.73864 42.8153 9.97159 43.4631 10.4375C44.1108 10.9034 44.5227 11.5284 44.6989 12.3125H44.8352C45.0795 11.5341 45.5568 10.9119 46.267 10.446C46.9773 9.97443 47.8153 9.73864 48.7812 9.73864C50.0199 9.73864 51.0256 10.1364 51.7983 10.9318C52.571 11.7216 52.9574 12.8068 52.9574 14.1875V23H48.7898V15.142C48.7898 14.4886 48.6222 13.9915 48.2869 13.6506C47.9517 13.304 47.517 13.1307 46.983 13.1307C46.4091 13.1307 45.9574 13.3182 45.6278 13.6932C45.304 14.0625 45.142 14.5597 45.142 15.1847V23H41.1364V15.0994C41.1364 14.4915 40.9716 14.0114 40.642 13.6591C40.3125 13.3068 39.8778 13.1307 39.3381 13.1307C38.9744 13.1307 38.6534 13.2187 38.375 13.3949C38.0966 13.5653 37.8778 13.8097 37.7188 14.1278C37.5653 14.446 37.4886 14.821 37.4886 15.2528V23H33.321ZM61.6591 23.2472C60.2898 23.2472 59.108 22.9773 58.1136 22.4375C57.125 21.892 56.3636 21.1165 55.8295 20.1108C55.3011 19.0994 55.0369 17.8977 55.0369 16.5057C55.0369 15.1534 55.304 13.9716 55.8381 12.9602C56.3722 11.9432 57.125 11.1534 58.0966 10.5909C59.0682 10.0227 60.2131 9.73864 61.5312 9.73864C62.4631 9.73864 63.3153 9.88352 64.0881 10.1733C64.8608 10.4631 65.5284 10.892 66.0909 11.4602C66.6534 12.0284 67.0909 12.7301 67.4034 13.5653C67.7159 14.3949 67.8722 15.3466 67.8722 16.4205V17.4602H56.4943V15.0398H63.9943C63.9886 14.5966 63.8835 14.2017 63.679 13.8551C63.4744 13.5085 63.1932 13.2386 62.8352 13.0455C62.483 12.8466 62.0767 12.7472 61.6165 12.7472C61.1506 12.7472 60.733 12.8523 60.3636 13.0625C59.9943 13.267 59.7017 13.5483 59.4858 13.9062C59.2699 14.2585 59.1563 14.6591 59.1449 15.108V17.571C59.1449 18.1051 59.25 18.5739 59.4602 18.9773C59.6705 19.375 59.9688 19.6847 60.3551 19.9062C60.7415 20.1278 61.2017 20.2386 61.7358 20.2386C62.1051 20.2386 62.4403 20.1875 62.7415 20.0852C63.0426 19.983 63.3011 19.8324 63.517 19.6335C63.733 19.4347 63.8949 19.1903 64.0028 18.9006L67.8295 19.0114C67.6705 19.8693 67.321 20.6165 66.7812 21.2528C66.2472 21.8835 65.5455 22.375 64.6761 22.7273C63.8068 23.0739 62.8011 23.2472 61.6591 23.2472ZM76.4524 23H70.0007V5.54545H76.4439C78.2223 5.54545 79.7536 5.89489 81.0376 6.59375C82.3274 7.28693 83.3217 8.28693 84.0206 9.59375C84.7195 10.8949 85.0689 12.4517 85.0689 14.2642C85.0689 16.0824 84.7195 17.6449 84.0206 18.9517C83.3274 20.2585 82.3359 21.2614 81.0462 21.9602C79.7564 22.6534 78.2251 23 76.4524 23ZM74.2195 19.4034H76.2905C77.2678 19.4034 78.0945 19.2386 78.7706 18.9091C79.4524 18.5739 79.9666 18.0312 80.3132 17.2812C80.6655 16.5256 80.8416 15.5199 80.8416 14.2642C80.8416 13.0085 80.6655 12.0085 80.3132 11.2642C79.9609 10.5142 79.4411 9.97443 78.7536 9.64489C78.0717 9.30966 77.2308 9.14204 76.2308 9.14204H74.2195V19.4034ZM93.6513 23.2472C92.282 23.2472 91.1001 22.9773 90.1058 22.4375C89.1172 21.892 88.3558 21.1165 87.8217 20.1108C87.2933 19.0994 87.0291 17.8977 87.0291 16.5057C87.0291 15.1534 87.2962 13.9716 87.8303 12.9602C88.3643 11.9432 89.1172 11.1534 90.0888 10.5909C91.0604 10.0227 92.2053 9.73864 93.5234 9.73864C94.4553 9.73864 95.3075 9.88352 96.0803 10.1733C96.853 10.4631 97.5206 10.892 98.0831 11.4602C98.6456 12.0284 99.0831 12.7301 99.3956 13.5653C99.7081 14.3949 99.8643 15.3466 99.8643 16.4205V17.4602H88.4865V15.0398H95.9865C95.9808 14.5966 95.8757 14.2017 95.6712 13.8551C95.4666 13.5085 95.1854 13.2386 94.8274 13.0455C94.4751 12.8466 94.0689 12.7472 93.6087 12.7472C93.1428 12.7472 92.7251 12.8523 92.3558 13.0625C91.9865 13.267 91.6939 13.5483 91.478 13.9062C91.2621 14.2585 91.1484 14.6591 91.1371 15.108V17.571C91.1371 18.1051 91.2422 18.5739 91.4524 18.9773C91.6626 19.375 91.9609 19.6847 92.3473 19.9062C92.7337 20.1278 93.1939 20.2386 93.728 20.2386C94.0973 20.2386 94.4325 20.1875 94.7337 20.0852C95.0348 19.983 95.2933 19.8324 95.5092 19.6335C95.7251 19.4347 95.8871 19.1903 95.995 18.9006L99.8217 19.0114C99.6626 19.8693 99.3132 20.6165 98.7734 21.2528C98.2393 21.8835 97.5376 22.375 96.6683 22.7273C95.799 23.0739 94.7933 23.2472 93.6513 23.2472ZM106.161 5.54545V23H101.993V5.54545H106.161Z" fill="#339E58"/>
    </svg>
    