<svg width="40" height="29" viewBox="0 0 108 29" fill="none" xmlns="http://www.w3.org/2000/svg">
    <path
        d="M14 13.5C13.337 13.5 12.7011 13.2366 12.2322 12.7678C11.7634 12.2989 11.5 11.663 11.5 11C11.5 10.337 11.7634 9.70107 12.2322 9.23223C12.7011 8.76339 13.337 8.5 14 8.5C14.663 8.5 15.2989 8.76339 15.7678 9.23223C16.2366 9.70107 16.5 10.337 16.5 11C16.5 11.3283 16.4353 11.6534 16.3097 11.9567C16.1841 12.26 15.9999 12.5356 15.7678 12.7678C15.5356 12.9999 15.26 13.1841 14.9567 13.3097C14.6534 13.4353 14.3283 13.5 14 13.5ZM14 4C12.1435 4 10.363 4.7375 9.05025 6.05025C7.7375 7.36301 7 9.14348 7 11C7 16.25 14 24 14 24C14 24 21 16.25 21 11C21 9.14348 20.2625 7.36301 18.9497 6.05025C17.637 4.7375 15.8565 4 14 4Z"
        fill="#0FA958" />
    <path
        d="M29.7727 23H23.321V5.54545H29.7642C31.5426 5.54545 33.0739 5.89489 34.358 6.59375C35.6477 7.28693 36.642 8.28693 37.3409 9.59375C38.0398 10.8949 38.3892 12.4517 38.3892 14.2642C38.3892 16.0824 38.0398 17.6449 37.3409 18.9517C36.6477 20.2585 35.6562 21.2614 34.3665 21.9602C33.0767 22.6534 31.5455 23 29.7727 23ZM27.5398 19.4034H29.6108C30.5881 19.4034 31.4148 19.2386 32.0909 18.9091C32.7727 18.5739 33.2869 18.0312 33.6335 17.2812C33.9858 16.5256 34.1619 15.5199 34.1619 14.2642C34.1619 13.0085 33.9858 12.0085 33.6335 11.2642C33.2813 10.5142 32.7614 9.97443 32.0739 9.64489C31.392 9.30966 30.5511 9.14204 29.5511 9.14204H27.5398V19.4034ZM46.9716 23.2472C45.6023 23.2472 44.4205 22.9773 43.4261 22.4375C42.4375 21.892 41.6761 21.1165 41.142 20.1108C40.6136 19.0994 40.3494 17.8977 40.3494 16.5057C40.3494 15.1534 40.6165 13.9716 41.1506 12.9602C41.6847 11.9432 42.4375 11.1534 43.4091 10.5909C44.3807 10.0227 45.5256 9.73864 46.8438 9.73864C47.7756 9.73864 48.6278 9.88352 49.4006 10.1733C50.1733 10.4631 50.8409 10.892 51.4034 11.4602C51.9659 12.0284 52.4034 12.7301 52.7159 13.5653C53.0284 14.3949 53.1847 15.3466 53.1847 16.4205V17.4602H41.8068V15.0398H49.3068C49.3011 14.5966 49.196 14.2017 48.9915 13.8551C48.7869 13.5085 48.5057 13.2386 48.1477 13.0455C47.7955 12.8466 47.3892 12.7472 46.929 12.7472C46.4631 12.7472 46.0455 12.8523 45.6761 13.0625C45.3068 13.267 45.0142 13.5483 44.7983 13.9062C44.5824 14.2585 44.4688 14.6591 44.4574 15.108V17.571C44.4574 18.1051 44.5625 18.5739 44.7727 18.9773C44.983 19.375 45.2812 19.6847 45.6676 19.9062C46.054 20.1278 46.5142 20.2386 47.0483 20.2386C47.4176 20.2386 47.7528 20.1875 48.054 20.0852C48.3551 19.983 48.6136 19.8324 48.8295 19.6335C49.0455 19.4347 49.2074 19.1903 49.3153 18.9006L53.142 19.0114C52.983 19.8693 52.6335 20.6165 52.0938 21.2528C51.5597 21.8835 50.858 22.375 49.9886 22.7273C49.1193 23.0739 48.1136 23.2472 46.9716 23.2472ZM59.4808 5.54545V23H55.3132V5.54545H59.4808Z"
        fill="#339E58" />
</svg>